<svg width="34" height="29" viewBox="0 0 34 29" fill="none" xmlns="http://www.w3.org/2000/svg">
<g id="Group 19">
<g id="Group">
<path id="Vector" d="M2.83779 13.6362L2.83784 13.6362L3.08747 13.3865C5.9558 14.1042 8.10347 16.7313 8.10347 19.8469C8.10347 22.0383 8.77787 24.2986 11.1066 25.26C11.6094 25.4676 12.1046 25.7009 12.6011 25.9348C12.7655 26.0122 12.9301 26.0898 13.0951 26.1664C13.3184 26.2702 13.5423 26.3722 13.7653 26.4688C12.5783 26.8248 11.1588 26.9696 9.7186 26.8192C7.76677 26.6153 5.82666 25.8748 4.39678 24.4457C2.68665 22.7083 1.67035 20.6086 1.40114 18.6388C1.13182 16.6682 1.61077 14.8632 2.83779 13.6362Z" fill="#D17842" stroke="#141921"/>
<path id="Vector_2" d="M5.96082 14.7002L5.92715 14.6708L5.8888 14.6478C5.1769 14.2206 4.61114 13.868 4.12265 13.5636C3.826 13.3787 3.55786 13.2116 3.30278 13.0563C3.11309 12.9409 2.93338 12.8337 2.75919 12.7339C3.84556 12.5545 5.11726 12.5299 6.41299 12.7394C8.26585 13.0389 10.1322 13.8107 11.5709 15.2494C13.3089 16.9874 14.3384 19.0873 14.6141 21.0566C14.8899 23.0261 14.4112 24.8306 13.1842 26.0576C13.0932 26.1486 13.0284 26.2129 12.9695 26.2652C10.0327 25.6138 7.86294 22.9793 7.86294 19.8469C7.86294 19.7478 7.86319 19.65 7.86344 19.5535C7.86578 18.654 7.86783 17.8647 7.66128 17.131C7.42213 16.2814 6.91956 15.5392 5.96082 14.7002Z" fill="#D17842" stroke="#141921"/>
</g>
<g id="Group_2">
<path id="Vector_3" d="M14.1656 26.0342L14.1655 26.0341C11.9309 24.744 10.5588 22.332 10.1989 19.4229C9.8391 16.5145 10.4996 13.144 12.2986 10.0281C15.0985 5.1785 19.7147 2.48656 23.7166 2.66863C22.5709 3.58739 21.5658 4.72397 20.8202 6.01544C19.1972 8.82646 18.7792 11.9905 19.615 15.1099C20.8305 19.6462 18.6576 24.2427 14.7219 26.3341C14.5287 26.2435 14.3553 26.1438 14.1656 26.0342Z" fill="#D17842" stroke="#141921"/>
<path id="Vector_4" d="M25.5994 3.64193L25.5994 3.64195L25.6031 3.64409C27.8679 4.92553 29.239 7.33512 29.5907 10.2451C29.9425 13.1552 29.266 16.5307 27.4662 19.6481C24.7201 24.4046 20.0141 26.6006 15.9734 26.3696C16.3347 26.1488 16.6933 25.923 17.0227 25.6882C17.7532 25.1675 18.4347 24.5441 18.9447 23.6607C20.5676 20.8497 20.9857 17.6856 20.1499 14.5662C18.915 9.95752 20.461 5.17523 24.3215 3.10831C24.3389 3.11513 24.3567 3.12212 24.3749 3.12926C24.5282 3.18945 24.7097 3.26069 24.9094 3.34126C25.2404 3.47483 25.5105 3.59065 25.5994 3.64193Z" fill="#D17842" stroke="#141921"/>
</g>
</g>
</svg>
