<svg width="23" height="23" viewBox="0 0 23 23" fill="none" xmlns="http://www.w3.org/2000/svg">
<g id="Group">
<path id="Vector" d="M12.7485 3.34458L14.3827 6.61316C14.6056 7.06816 15.1999 7.50458 15.7013 7.58816L18.6635 8.0803C20.5577 8.39601 21.0035 9.7703 19.6385 11.126L17.3356 13.4289C16.9456 13.8189 16.732 14.571 16.8527 15.1096L17.512 17.9603C18.032 20.2167 16.8342 21.0896 14.8377 19.9103L12.0613 18.2667C11.5599 17.9696 10.7335 17.9696 10.2227 18.2667L7.44631 19.9103C5.45917 21.0896 4.25202 20.2074 4.77202 17.9603L5.43131 15.1096C5.55202 14.571 5.33845 13.8189 4.94845 13.4289L2.64559 11.126C1.28988 9.7703 1.72631 8.39601 3.62059 8.0803L6.58274 7.58816C7.07488 7.50458 7.66917 7.06816 7.89202 6.61316L9.52631 3.34458C10.4177 1.57101 11.8663 1.57101 12.7485 3.34458Z" fill="#D17842"/>
</g>
</svg>
