<svg width="20" height="19" viewBox="0 0 20 19" fill="none" xmlns="http://www.w3.org/2000/svg">
<path d="M11.7485 1.34458L13.3827 4.61316C13.6056 5.06816 14.1999 5.50458 14.7013 5.58816L17.6635 6.0803C19.5577 6.39601 20.0035 7.7703 18.6385 9.12601L16.3356 11.4289C15.9456 11.8189 15.732 12.571 15.8527 13.1096L16.512 15.9603C17.032 18.2167 15.8342 19.0896 13.8377 17.9103L11.0613 16.2667C10.5599 15.9696 9.73345 15.9696 9.22274 16.2667L6.44631 17.9103C4.45917 19.0896 3.25202 18.2074 3.77202 15.9603L4.43131 13.1096C4.55202 12.571 4.33845 11.8189 3.94845 11.4289L1.64559 9.12601C0.28988 7.7703 0.726309 6.39601 2.62059 6.0803L5.58274 5.58816C6.07488 5.50458 6.66917 5.06816 6.89202 4.61316L8.52631 1.34458C9.41774 -0.428987 10.8663 -0.428987 11.7485 1.34458Z" fill="#D17842"/>
</svg>
